<svg width="20" height="21" viewBox="0 0 20 21" fill="none" xmlns="http://www.w3.org/2000/svg">
<g id="Checkbox">
<path d="M0.75 4.90039C0.75 3.10546 2.20507 1.65039 4 1.65039H16C17.7949 1.65039 19.25 3.10547 19.25 4.90039V16.9004C19.25 18.6953 17.7949 20.1504 16 20.1504H4C2.20507 20.1504 0.75 18.6953 0.75 16.9004V4.90039Z" fill="#1F74B3"/>
<path d="M0.75 4.90039C0.75 3.10546 2.20507 1.65039 4 1.65039H16C17.7949 1.65039 19.25 3.10547 19.25 4.90039V16.9004C19.25 18.6953 17.7949 20.1504 16 20.1504H4C2.20507 20.1504 0.75 18.6953 0.75 16.9004V4.90039Z" stroke="#1F74B3" stroke-width="1.5"/>
<path id="Vector" d="M15 7.90039L8.32955 13.9004L5 10.9004" stroke="white" stroke-width="1.5" stroke-linecap="round" stroke-linejoin="round"/>
</g>
</svg>
